<?xml version="1.0" encoding="utf-8"?>
<!-- Generator: Adobe Illustrator 16.0.3, SVG Export Plug-In . SVG Version: 6.00 Build 0)  -->
<!DOCTYPE svg PUBLIC "-//W3C//DTD SVG 1.1//EN" "http://www.w3.org/Graphics/SVG/1.1/DTD/svg11.dtd">
<svg version="1.1" id="Layer_2" xmlns="http://www.w3.org/2000/svg" xmlns:xlink="http://www.w3.org/1999/xlink" x="0px" y="0px"
	 width="200.001px" height="200px" viewBox="206 296 200.001 200" enable-background="new 206 296 200.001 200"
	 xml:space="preserve">
<g>
	<path fill="#3B559F" d="M406,486.697c0,5.138-4.165,9.303-9.303,9.303H215.303c-5.138,0-9.303-4.165-9.303-9.303V305.303
		c0-5.138,4.165-9.303,9.303-9.303h181.395c5.138,0,9.303,4.165,9.303,9.303L406,486.697L406,486.697z"/>
	<path fill="#FFFFFF" d="M359.925,354.959h15.534v-28.024c-6.237-0.186-14.426-0.398-25.154-0.634
		c-38.762-0.849-37.347,39.046-37.347,39.046v22.949H286.31v29.952h26.648V496h31.022v-77.752h26.059l3.721-29.952H343.98v-20.12
		C343.98,353.603,359.925,354.959,359.925,354.959z"/>
</g>
</svg>
