<?xml version="1.0" encoding="utf-8"?>
<!-- Generator: Adobe Illustrator 16.0.0, SVG Export Plug-In . SVG Version: 6.00 Build 0)  -->
<!DOCTYPE svg PUBLIC "-//W3C//DTD SVG 1.1//EN" "http://www.w3.org/Graphics/SVG/1.1/DTD/svg11.dtd">
<svg version="1.1" id="Layer_1" xmlns="http://www.w3.org/2000/svg" xmlns:xlink="http://www.w3.org/1999/xlink" x="0px" y="0px"
	 width="71.617px" height="64.886px" viewBox="0 0 71.617 64.886" enable-background="new 0 0 71.617 64.886" xml:space="preserve">
<g>
	<path fill="#FFFFFF" d="M40.775,0h3.985v29.777h-3.985v-1.798c-1.563,1.528-3.332,2.292-5.306,2.292
		c-2.351,0-4.302-0.857-5.854-2.574c-1.54-1.751-2.31-3.937-2.31-6.558c0-2.562,0.77-4.701,2.31-6.417
		c1.528-1.728,3.45-2.591,5.765-2.591c2.01,0,3.808,0.823,5.395,2.468V0z M31.361,21.139c0,1.646,0.441,2.985,1.322,4.02
		c0.905,1.046,2.045,1.569,3.42,1.569c1.469,0,2.656-0.505,3.561-1.516c0.905-1.046,1.358-2.374,1.358-3.984
		c0-1.61-0.453-2.938-1.358-3.984c-0.905-1.022-2.081-1.534-3.526-1.534c-1.364,0-2.504,0.518-3.42,1.551
		C31.813,18.306,31.361,19.599,31.361,21.139z"/>
	<path fill="#FFFFFF" d="M56.857,15.532l-3.28,1.745c-0.517-1.045-1.157-1.569-1.921-1.569c-0.364,0-0.676,0.12-0.934,0.361
		c-0.259,0.241-0.388,0.549-0.388,0.924c0,0.657,0.764,1.309,2.292,1.955c2.104,0.904,3.52,1.737,4.249,2.5
		c0.729,0.764,1.094,1.791,1.094,3.082c0,1.656-0.612,3.041-1.833,4.156c-1.188,1.057-2.622,1.584-4.302,1.584
		c-2.879,0-4.919-1.404-6.118-4.213l3.385-1.569c0.47,0.823,0.829,1.346,1.075,1.569c0.482,0.447,1.058,0.669,1.728,0.669
		c1.34,0,2.01-0.611,2.01-1.833c0-0.706-0.517-1.363-1.551-1.975c-0.4-0.2-0.799-0.394-1.199-0.582
		c-0.4-0.188-0.805-0.382-1.217-0.582c-1.152-0.564-1.963-1.128-2.433-1.693c-0.6-0.717-0.899-1.639-0.899-2.768
		c0-1.493,0.511-2.727,1.534-3.703c1.046-0.975,2.315-1.463,3.808-1.463C54.153,12.13,55.787,13.264,56.857,15.532z"/>
	<path fill="#FFFFFF" d="M3.967,64.886H0V38.37h3.967v1.869c1.563-1.563,3.338-2.345,5.324-2.345c2.362,0,4.308,0.87,5.835,2.609
		c1.551,1.728,2.327,3.908,2.327,6.541c0,2.574-0.77,4.719-2.31,6.435c-1.528,1.704-3.456,2.556-5.783,2.556
		c-2.01,0-3.808-0.805-5.395-2.415V64.886z M13.399,47.062c0-1.646-0.447-2.985-1.34-4.02c-0.905-1.046-2.045-1.569-3.42-1.569
		c-1.458,0-2.639,0.506-3.543,1.517C4.19,44,3.737,45.328,3.737,46.973c0,1.611,0.453,2.938,1.358,3.985
		c0.893,1.022,2.068,1.534,3.526,1.534c1.375,0,2.509-0.517,3.402-1.552C12.94,49.906,13.399,48.613,13.399,47.062z"/>
	<path fill="#FFFFFF" d="M37.522,38.37h3.985v17.171h-3.985v-1.798c-1.633,1.528-3.391,2.292-5.271,2.292
		c-2.375,0-4.337-0.858-5.889-2.574c-1.54-1.751-2.31-3.937-2.31-6.558c0-2.574,0.77-4.719,2.31-6.435
		c1.54-1.716,3.467-2.574,5.783-2.574c1.998,0,3.791,0.823,5.377,2.468V38.37z M28.108,46.903c0,1.646,0.441,2.986,1.322,4.02
		c0.905,1.046,2.045,1.569,3.42,1.569c1.469,0,2.656-0.505,3.562-1.517c0.905-1.045,1.357-2.374,1.357-3.984
		s-0.453-2.938-1.357-3.984c-0.905-1.022-2.081-1.534-3.526-1.534c-1.363,0-2.503,0.518-3.42,1.552
		C28.56,44.071,28.108,45.363,28.108,46.903z"/>
	<path fill="#FFFFFF" d="M55.496,53.567c-0.456-0.487-0.836-1.026-1.158-1.606c-0.69,0.353-1.474,0.531-2.356,0.531
		c-1.493,0-2.721-0.517-3.685-1.552c-0.952-1.034-1.428-2.356-1.428-3.967c0-1.574,0.494-2.885,1.481-3.931
		c0.987-1.046,2.228-1.569,3.72-1.569c0.846,0,1.594,0.168,2.245,0.502c0.31-0.573,0.675-1.108,1.11-1.595
		c0.463-0.507,0.973-0.935,1.529-1.287c-1.495-0.799-3.082-1.199-4.762-1.199c-2.633,0-4.854,0.881-6.664,2.645
		c-1.811,1.763-2.715,3.926-2.715,6.488c0,2.562,0.893,4.707,2.68,6.435c1.787,1.716,4.008,2.574,6.664,2.574
		c1.606,0,3.211-0.415,4.818-1.245C56.44,54.451,55.946,54.045,55.496,53.567z"/>
	<path fill="#FFFFFF" d="M26.007,22.126H13.701c0.106,1.411,0.564,2.533,1.375,3.367c0.811,0.823,1.852,1.234,3.121,1.234
		c0.987,0,1.804-0.235,2.451-0.705c0.635-0.47,1.357-1.34,2.168-2.609l3.35,1.869c-0.517,0.881-1.064,1.637-1.64,2.266
		c-0.576,0.628-1.193,1.146-1.851,1.551c-0.658,0.405-1.369,0.702-2.133,0.89c-0.764,0.188-1.593,0.282-2.486,0.282
		c-2.562,0-4.619-0.822-6.17-2.468c-1.551-1.657-2.327-3.855-2.327-6.594c0-2.715,0.752-4.913,2.257-6.593
		c1.516-1.658,3.526-2.486,6.029-2.486c2.527,0,4.525,0.805,5.994,2.415c1.458,1.599,2.187,3.814,2.187,6.646L26.007,22.126z
		 M21.935,18.882c-0.553-2.116-1.886-3.173-4.002-3.173c-0.482,0-0.935,0.074-1.357,0.22c-0.423,0.147-0.809,0.359-1.155,0.635
		c-0.347,0.276-0.644,0.608-0.891,0.997c-0.247,0.388-0.435,0.828-0.564,1.322H21.935z"/>
	<path fill="#FFFFFF" d="M10.411,13.707c0.211-0.231,0.433-0.444,0.663-0.643c-1.083-0.621-2.125-0.935-3.123-0.935
		c-0.788,0-1.469,0.147-2.045,0.44c-0.564,0.282-1.211,0.805-1.939,1.569v-1.534H0v17.172h3.967v-8.903
		c0-3.267,1.081-4.901,3.244-4.901c0.521,0,1.052,0.145,1.592,0.431C9.177,15.394,9.708,14.492,10.411,13.707z"/>
	<path fill="#FFFFFF" d="M22.675,31.744c-0.658,0.405-1.369,0.702-2.133,0.89c-0.559,0.138-1.153,0.224-1.78,0.261v22.647h3.966
		V31.708C22.71,31.719,22.693,31.733,22.675,31.744z"/>
	<path fill="#FFFFFF" d="M67.019,51.057c-0.273,0.303-0.533,0.547-0.779,0.729c-0.646,0.471-1.463,0.706-2.451,0.706
		c-1.27,0-2.31-0.411-3.12-1.234c-0.811-0.835-1.27-1.957-1.375-3.368h12.306l0.018-0.934c0-2.833-0.729-5.048-2.186-6.647
		c-1.469-1.61-3.467-2.415-5.994-2.415c-2.503,0-4.513,0.829-6.029,2.486c-1.505,1.681-2.257,3.878-2.257,6.593
		c0,2.739,0.776,4.937,2.327,6.594c1.551,1.646,3.608,2.468,6.17,2.468c0.893,0,1.722-0.094,2.486-0.282s1.475-0.484,2.133-0.89
		c0.504-0.311,0.984-0.688,1.441-1.131L67.019,51.057z M60.122,43.324c0.247-0.388,0.543-0.72,0.89-0.996
		c0.347-0.276,0.732-0.488,1.155-0.635c0.423-0.147,0.875-0.221,1.357-0.221c2.116,0,3.45,1.058,4.002,3.173h-7.969
		C59.687,44.153,59.875,43.712,60.122,43.324z"/>
</g>
</svg>
