<?xml version="1.0" encoding="utf-8"?>
<!-- Generator: Adobe Illustrator 16.0.0, SVG Export Plug-In . SVG Version: 6.00 Build 0)  -->
<!DOCTYPE svg PUBLIC "-//W3C//DTD SVG 1.1//EN" "http://www.w3.org/Graphics/SVG/1.1/DTD/svg11.dtd">
<svg version="1.1" id="Layer_1" xmlns="http://www.w3.org/2000/svg" xmlns:xlink="http://www.w3.org/1999/xlink" x="0px" y="0px"
	 width="180.408px" height="51.985px" viewBox="0 0 180.408 51.985" enable-background="new 0 0 180.408 51.985"
	 xml:space="preserve">
<g>
	<g>
		<path fill="#FFFFFF" d="M54.036,0h5.281v39.461h-5.281v-2.383c-2.071,2.025-4.416,3.037-7.032,3.037
			c-3.115,0-5.701-1.137-7.757-3.411c-2.04-2.32-3.061-5.217-3.061-8.691c0-3.396,1.021-6.23,3.061-8.504
			c2.024-2.29,4.571-3.435,7.64-3.435c2.663,0,5.047,1.091,7.149,3.271V0z M41.561,28.013c0,2.181,0.584,3.957,1.752,5.327
			c1.199,1.387,2.71,2.08,4.532,2.08c1.947,0,3.52-0.669,4.72-2.009c1.199-1.386,1.8-3.146,1.8-5.28c0-2.134-0.601-3.894-1.8-5.28
			c-1.2-1.355-2.757-2.033-4.673-2.033c-1.807,0-3.317,0.686-4.532,2.056C42.159,24.26,41.561,25.973,41.561,28.013z"/>
		<path fill="#FFFFFF" d="M75.349,20.583l-4.347,2.313c-0.685-1.386-1.533-2.079-2.546-2.079c-0.483,0-0.896,0.159-1.238,0.479
			c-0.343,0.319-0.515,0.727-0.515,1.225c0,0.872,1.013,1.734,3.038,2.59c2.788,1.198,4.665,2.303,5.63,3.313
			c0.966,1.012,1.449,2.373,1.449,4.083c0,2.194-0.811,4.03-2.43,5.508c-1.574,1.4-3.474,2.1-5.701,2.1
			c-3.815,0-6.519-1.86-8.107-5.583l4.486-2.08c0.623,1.09,1.098,1.784,1.425,2.08c0.639,0.592,1.402,0.888,2.289,0.888
			c1.776,0,2.665-0.81,2.665-2.43c0-0.935-0.687-1.807-2.057-2.617c-0.53-0.265-1.06-0.522-1.589-0.771
			c-0.53-0.249-1.066-0.505-1.612-0.771c-1.526-0.748-2.601-1.496-3.225-2.243c-0.794-0.95-1.19-2.172-1.19-3.668
			c0-1.978,0.677-3.613,2.032-4.906c1.386-1.293,3.068-1.939,5.046-1.939C71.766,16.074,73.931,17.578,75.349,20.583z"/>
		<path fill="#FFFFFF" d="M34.465,29.321H18.157c0.14,1.87,0.748,3.357,1.822,4.463c1.075,1.09,2.453,1.635,4.136,1.635
			c1.309,0,2.391-0.312,3.247-0.935c0.841-0.623,1.799-1.775,2.874-3.458l4.439,2.476c-0.686,1.168-1.41,2.169-2.174,3.002
			c-0.763,0.833-1.58,1.519-2.452,2.056c-0.873,0.538-1.815,0.931-2.827,1.181c-1.013,0.248-2.111,0.373-3.295,0.373
			c-3.396,0-6.121-1.09-8.177-3.271c-2.056-2.196-3.084-5.109-3.084-8.738c0-3.598,0.996-6.51,2.99-8.738
			c2.009-2.196,4.673-3.294,7.991-3.294c3.348,0,5.996,1.067,7.943,3.201c1.931,2.118,2.896,5.055,2.896,8.808L34.465,29.321z
			 M29.067,25.022c-0.731-2.804-2.499-4.205-5.303-4.205c-0.639,0-1.238,0.097-1.799,0.292c-0.561,0.195-1.071,0.476-1.53,0.841
			c-0.46,0.366-0.853,0.806-1.18,1.32c-0.327,0.514-0.577,1.098-0.748,1.752H29.067z"/>
		<path fill="#FFFFFF" d="M13.797,18.165c0.28-0.306,0.574-0.588,0.879-0.852c-1.436-0.823-2.816-1.239-4.139-1.239
			c-1.043,0-1.947,0.195-2.71,0.584c-0.748,0.374-1.604,1.067-2.57,2.08v-2.033H0v22.756h5.257V27.663
			c0-4.33,1.433-6.495,4.299-6.495c0.691,0,1.394,0.192,2.11,0.571C12.162,20.4,12.866,19.205,13.797,18.165z"/>
	</g>
	<g>
		<path fill="#FFFFFF" d="M90.757,51.985H85.5v-35.14h5.257v2.477c2.071-2.071,4.424-3.107,7.056-3.107
			c3.131,0,5.709,1.153,7.733,3.458c2.057,2.289,3.084,5.179,3.084,8.668c0,3.411-1.02,6.254-3.061,8.527
			c-2.025,2.259-4.579,3.388-7.663,3.388c-2.663,0-5.047-1.066-7.149-3.2V51.985z M103.257,28.364c0-2.181-0.592-3.956-1.775-5.327
			c-1.2-1.386-2.711-2.079-4.533-2.079c-1.932,0-3.497,0.67-4.696,2.009c-1.199,1.34-1.799,3.1-1.799,5.28
			c0,2.135,0.6,3.895,1.799,5.28c1.184,1.355,2.741,2.032,4.673,2.032c1.822,0,3.325-0.685,4.51-2.056
			C102.649,32.134,103.257,30.42,103.257,28.364z"/>
		<path fill="#FFFFFF" d="M135.226,16.846h5.28v22.756h-5.28v-2.383c-2.165,2.025-4.494,3.037-6.986,3.037
			c-3.146,0-5.747-1.137-7.803-3.411c-2.041-2.32-3.061-5.218-3.061-8.69c0-3.411,1.02-6.254,3.061-8.528
			c2.04-2.273,4.594-3.411,7.662-3.411c2.648,0,5.024,1.091,7.127,3.271V16.846z M122.749,28.154c0,2.181,0.584,3.956,1.752,5.326
			c1.2,1.387,2.711,2.079,4.533,2.079c1.946,0,3.52-0.669,4.719-2.009c1.2-1.386,1.799-3.146,1.799-5.28s-0.599-3.894-1.799-5.28
			c-1.199-1.354-2.756-2.032-4.672-2.032c-1.808,0-3.317,0.686-4.533,2.056C123.349,24.4,122.749,26.113,122.749,28.154z"/>
		<path fill="#FFFFFF" d="M159.044,36.985c-0.604-0.646-1.107-1.36-1.534-2.129c-0.915,0.467-1.954,0.703-3.123,0.703
			c-1.979,0-3.606-0.685-4.883-2.056c-1.262-1.37-1.893-3.122-1.893-5.257c0-2.087,0.654-3.823,1.963-5.21
			c1.308-1.386,2.951-2.079,4.93-2.079c1.121,0,2.113,0.223,2.976,0.665c0.41-0.76,0.895-1.469,1.472-2.113
			c0.613-0.672,1.29-1.239,2.026-1.705c-1.981-1.06-4.085-1.59-6.311-1.59c-3.489,0-6.433,1.168-8.831,3.505
			c-2.399,2.336-3.598,5.202-3.598,8.598s1.184,6.238,3.551,8.527c2.367,2.274,5.312,3.411,8.831,3.411
			c2.129,0,4.257-0.55,6.386-1.65C160.296,38.156,159.641,37.618,159.044,36.985z"/>
		<path fill="#FFFFFF" d="M174.315,33.658c-0.361,0.401-0.706,0.726-1.033,0.967c-0.856,0.624-1.938,0.935-3.247,0.935
			c-1.683,0-3.061-0.544-4.136-1.635c-1.074-1.106-1.682-2.594-1.822-4.463h16.308l0.023-1.238c0-3.753-0.966-6.689-2.896-8.808
			c-1.947-2.134-4.595-3.201-7.944-3.201c-3.317,0-5.98,1.098-7.99,3.295c-1.993,2.227-2.99,5.14-2.99,8.737
			c0,3.63,1.027,6.542,3.084,8.738c2.056,2.181,4.781,3.271,8.177,3.271c1.184,0,2.282-0.125,3.295-0.374
			c1.012-0.249,1.954-0.642,2.826-1.18c0.669-0.412,1.305-0.912,1.91-1.498L174.315,33.658z M165.176,23.411
			c0.326-0.515,0.72-0.954,1.18-1.32c0.459-0.365,0.97-0.646,1.53-0.841s1.16-0.292,1.799-0.292c2.804,0,4.571,1.401,5.304,4.205
			h-10.561C164.599,24.509,164.848,23.925,165.176,23.411z"/>
		<rect x="110.362" fill="#FFFFFF" width="5.257" height="39.602"/>
	</g>
</g>
</svg>
